<svg width="36" height="37" viewBox="0 0 36 37" fill="none" xmlns="http://www.w3.org/2000/svg">
<path d="M0 18.5C0 28.4844 8.01562 36.5 18 36.5C27.9141 36.5 36 28.4844 36 18.5C36 8.58594 27.9141 0.5 18 0.5C8.01562 0.5 0 8.58594 0 18.5ZM17.2969 9.64062C17.7188 9.78125 18 10.2031 18 10.625V15.125H24.75C25.9453 15.125 27 16.1797 27 17.375V19.625C27 20.8906 25.9453 21.875 24.75 21.875H18V26.375C18 26.8672 17.7188 27.2891 17.2969 27.4297C16.875 27.6406 16.3828 27.5 16.0312 27.2188L8.15625 19.3438C7.73438 18.9219 7.73438 18.1484 8.15625 17.7266L16.0312 9.85156C16.3828 9.57031 16.875 9.42969 17.2969 9.64062Z" fill="#BA9A5A"/>
</svg>
