<svg width="52" height="44" viewBox="0 0 52 44" fill="none" xmlns="http://www.w3.org/2000/svg">
<path d="M4.39173 42.9918H0V34.1763H4.27152C5.93845 34.1763 7.01235 34.9376 7.01235 36.4683C7.01235 37.5262 6.43533 38.2474 5.60186 38.4718C6.62767 38.7363 7.19667 39.5938 7.19667 40.5715C7.20468 42.1183 6.21093 42.9918 4.39173 42.9918ZM3.64642 36.3721H2.62863V37.6143H3.64642C4.11925 37.6143 4.34365 37.43 4.34365 37.0052C4.34365 36.5725 4.11925 36.3721 3.64642 36.3721ZM3.82273 39.5297H2.62863V40.7719H3.82273C4.29556 40.7719 4.51996 40.5956 4.51996 40.1628C4.51996 39.7461 4.29556 39.5297 3.82273 39.5297Z" fill="#BA9A5A"/>
<path d="M16.5251 38.56C16.5251 41.0764 14.8421 42.9918 12.1734 42.9918H8.67926V34.1763H12.1654C14.8421 34.1763 16.5251 36.0195 16.5251 38.56ZM11.933 40.5234C13.095 40.5234 13.8644 39.8422 13.8644 38.56C13.8644 37.2777 13.095 36.5965 11.933 36.5965H11.3079V40.5315H11.933V40.5234Z" fill="#BA9A5A"/>
<path d="M22.143 43.0802C19.7628 43.0802 17.8234 41.2049 17.8234 38.5522C17.8234 35.8995 19.7628 34.0322 22.143 34.0322C24.5312 34.0322 26.4386 35.8995 26.4386 38.5522C26.4386 41.2049 24.5072 43.0802 22.143 43.0802ZM22.143 40.4996C23.1929 40.4996 23.7779 39.7142 23.7779 38.5442C23.7779 37.3501 23.2009 36.5807 22.143 36.5807C21.0691 36.5807 20.5001 37.3501 20.5001 38.5442C20.5001 39.7142 21.0611 40.4996 22.143 40.4996Z" fill="#BA9A5A"/>
<path d="M30.5979 34.1763V40.8921H33.1303V42.9838H27.9692V34.1763H30.5979Z" fill="#BA9A5A"/>
<path d="M34.5488 34.1763H37.1775V42.9838H34.5488V34.1763Z" fill="#BA9A5A"/>
<path d="M38.9486 34.1763H44.863V36.3641H41.5772V37.5903H43.9414V39.6659H41.5772V42.9918H38.9486V34.1763Z" fill="#BA9A5A"/>
<path d="M51.9234 36.3801H48.9662V37.4621H51.5708V39.5377H48.9662V40.7799H51.9234V42.9838H46.3376V34.1763H51.9234V36.3801Z" fill="#BA9A5A"/>
<path d="M17.8732 7.87939L11.6207 14.0738L17.7337 20.4076L23.9862 14.2132L17.8732 7.87939ZM17.8151 12.5165L19.4073 14.1551L17.7919 15.7589L16.1997 14.1203L17.8151 12.5165Z" fill="#BA9A5A"/>
<path d="M31.9239 6.32221L25.8109 0L19.5468 6.18275L25.6598 12.5166L31.9239 6.32221ZM25.7527 4.63706L27.3333 6.27572L25.7179 7.87952L24.1373 6.24086L25.7527 4.63706Z" fill="#BA9A5A"/>
<path d="M19.5351 22.2207L25.6481 28.5546L31.9122 22.3602L25.7992 16.0264L19.5351 22.2207ZM25.7062 23.9175L24.1257 22.2788L25.7411 20.6751L27.3216 22.3137L25.7062 23.9175Z" fill="#BA9A5A"/>
<path d="M33.7252 8.14697L27.4727 14.3413L33.5974 20.6752L39.8498 14.4808L33.7252 8.14697ZM33.6787 12.7957L35.2593 14.4343L33.6438 16.0381L32.0633 14.3995L33.6787 12.7957Z" fill="#BA9A5A"/>
</svg>
